<svg width="144" height="128" viewBox="0 0 144 128" fill="none" xmlns="http://www.w3.org/2000/svg">
<path d="M115.5 99.6441C115.5 103.867 117.737 107.525 121 109.314V110.794C120.087 110.929 119.155 111 118.207 111C112.363 111 107.091 108.352 103.364 104.107C101.11 104.755 98.7229 105.105 96.25 105.105C82.581 105.105 71.5 94.4666 71.5 81.3436C71.5 68.2207 82.581 57.5823 96.25 57.5823C109.919 57.5823 121 68.2207 121 81.3436C121 86.4809 119.302 91.2373 116.415 95.1239C115.828 96.4998 115.5 98.0302 115.5 99.6441ZM66 16C89.93 16 109.398 32.7642 109.986 53.6394C105.759 51.6049 101.084 50.5282 96.25 50.5282C88.0378 50.5282 80.2814 53.6326 74.41 59.2696C68.3217 65.1145 64.9688 72.954 64.9688 81.3436C64.9688 85.49 65.7889 89.5012 67.3523 93.2046C66.903 93.2163 66.4527 93.2243 66 93.2243C63.6663 93.2243 61.3757 93.0634 59.1401 92.7561C49.6889 102.964 38.4077 104.795 27.5 105.063V102.565C33.3898 99.4485 38.5 93.7716 38.5 87.284C38.5 86.3786 38.4349 85.4898 38.314 84.6205C28.3628 77.5418 22 66.7295 22 54.6122C22 33.2873 41.6995 16 66 16Z" fill="currentColor"/>
</svg>
