<svg width="128" height="128" viewBox="0 0 128 128" fill="none" xmlns="http://www.w3.org/2000/svg">
<path d="M78.3296 45.9166C80.0289 44.7076 81.6589 43.3619 83.1525 41.8664C86.2839 38.731 88.3787 34.8732 89.0505 31.0038C89.7872 26.7623 88.7063 22.8241 86.0852 20.1996C83.9946 18.1065 81.1624 17 77.8948 17C73.2418 17 68.3396 19.2363 64.4454 23.1354C58.2133 29.3754 54.5805 37.9889 52.6258 44.1358C51.1783 37.9591 48.294 29.6196 42.6866 24.005C39.6778 20.9926 35.8322 19.4458 32.2011 19.4458C29.2335 19.4458 26.4092 20.4788 24.3017 22.5891C19.6155 27.2814 20.2487 35.5228 25.716 40.997C27.6653 42.9487 29.9439 44.5698 32.346 45.9168H12V69.9471H18V112H90V69.9469H96V45.9166H78.3296V45.9166ZM69.2181 27.9144C71.8172 25.312 75.0607 23.7585 77.8946 23.7585C78.8977 23.7585 80.3047 23.9701 81.3118 24.9786C83.7521 27.4218 82.3817 33.0802 78.3793 37.0874C74.2594 41.2125 68.7174 44.0494 63.9013 45.9166H59.1508C60.8916 40.5147 64.0312 33.1078 69.2181 27.9144ZM27.9313 30.9813C27.8655 30.1252 27.9266 28.5174 29.0747 27.3679C30.0351 26.4063 31.3048 26.2043 32.2011 26.2043C34.194 26.2043 36.2762 27.1445 37.9134 28.7838C41.0889 31.9633 43.704 37.0228 45.4761 43.4156C45.5239 43.5883 45.5706 43.7601 45.6163 43.9306C45.4461 43.885 45.2745 43.8382 45.102 43.7902C38.7173 42.0157 33.6643 39.3973 30.4888 36.2178C29.0049 34.7323 28.0729 32.8235 27.9313 30.9813V30.9813ZM48 105.992H24V66.9431H48V105.992ZM48 63.9393H18V51.9242H48V63.9393ZM84 105.992H60V66.9431H84V105.992ZM90 63.9393H60V51.9242H90V63.9393Z" fill="currentColor"/>
<path d="M104.5 95L115 111.5L104.5 128L94 111.5L104.5 95Z" fill="currentColor"/>
</svg>
