<svg width="512" height="512" viewBox="0 0 512 512" fill="none" xmlns="http://www.w3.org/2000/svg">
<path d="M368 448C323.888 448 288 412.112 288 368V320H224V368C224 412.112 188.112 448 144 448C99.888 448 64 412.112 64 368C64 323.888 99.888 288 144 288H192V224H144C99.888 224 64 188.112 64 144C64 99.888 99.888 64 144 64C188.112 64 224 99.888 224 144V192H288V144C288 99.888 323.888 64 368 64C412.112 64 448 99.888 448 144C448 188.112 412.112 224 368 224H320V288H368C412.112 288 448 323.888 448 368C448 412.112 412.113 448 368 448ZM320 320V368C320 394.467 341.533 416 368 416C394.467 416 416 394.467 416 368C416 341.533 394.467 320 368 320H320ZM144 320C117.533 320 96 341.533 96 368C96 394.467 117.533 416 144 416C170.467 416 192 394.467 192 368V320H144ZM224 288H288V224H224V288ZM320 192H368C394.467 192 416 170.467 416 144C416 117.533 394.467 96 368 96C341.533 96 320 117.533 320 144V192ZM144 96C117.533 96 96 117.533 96 144C96 170.467 117.533 192 144 192H192V144C192 117.533 170.468 96 144 96Z" fill="currentColor"/>
</svg>
