<svg width="512" height="512" viewBox="0 0 512 512" fill="none" xmlns="http://www.w3.org/2000/svg">
<path d="M464 64H320C320 28.654 291.347 0 256 0C220.653 0 192 28.654 192 64H48C39.164 64 32 71.164 32 80V496C32 504.837 39.164 512 48 512H464C472.837 512 480 504.837 480 496V80C480 71.164 472.837 64 464 64ZM256 32C273.673 32 288 46.327 288 64C288 81.673 273.673 96 256 96C238.327 96 224 81.673 224 64C224 46.327 238.327 32 256 32ZM448 480H64V96H128V144C128 152.836 135.164 160 144 160H368C376.837 160 384 152.836 384 144V96H448V480Z" fill="currentColor"/>
</svg>
