<svg width="128" height="128" viewBox="0 0 128 128" fill="none" xmlns="http://www.w3.org/2000/svg">
<g clip-path="url(#clip0)">
<path d="M125.45 13.004H2.54975C1.1415 13.004 0 14.1455 0 15.5538V95.4803C0 96.8885 1.1415 98.03 2.54975 98.03H14.0778L11.7633 112.03C11.641 112.769 11.85 113.525 12.3345 114.096C12.819 114.667 13.53 114.996 14.279 114.996H113.721C114.471 114.996 115.181 114.666 115.666 114.096C116.15 113.525 116.359 112.769 116.237 112.03L113.923 98.03H125.451C126.859 98.03 128 96.8885 128 95.4803V15.5538C128 14.1455 126.858 13.004 125.45 13.004ZM17.2847 109.897L19.2463 98.0303H23.1295L22.4562 103.572C22.3682 104.297 22.595 105.024 23.079 105.571C23.563 106.117 24.2577 106.43 24.9875 106.43H103.011C103.741 106.43 104.436 106.117 104.92 105.571C105.404 105.024 105.631 104.297 105.543 103.572L104.869 98.0303H108.753L110.715 109.897H17.2847ZM27.8662 101.33L28.267 98.03H99.733L100.133 101.33H27.8662ZM122.9 92.9305H5.0995V18.1035H122.9L122.9 92.9305Z" fill="currentColor"/>
<path d="M117.801 20.5508H10.1993C8.79101 20.5508 7.64951 21.6923 7.64951 23.1005V87.934C7.64951 89.3422 8.79101 90.4837 10.1993 90.4837H117.801C119.209 90.4837 120.351 89.3422 120.351 87.934V23.1005C120.351 21.6923 119.209 20.5508 117.801 20.5508ZM115.251 85.3842H12.749V25.6502H115.251V85.3842Z" fill="currentColor"/>
<path d="M79.5537 77.6663H78.2787C76.8707 77.6663 75.729 78.8078 75.729 80.216C75.729 81.6243 76.8707 82.7658 78.2787 82.7658H79.5537C80.9617 82.7658 82.1035 81.6243 82.1035 80.216C82.1035 78.8078 80.9617 77.6663 79.5537 77.6663Z" fill="currentColor"/>
<path d="M109.386 77.6663H88.733C87.325 77.6663 86.1833 78.8078 86.1833 80.216C86.1833 81.6243 87.325 82.7658 88.733 82.7658H109.386C110.794 82.7658 111.936 81.6243 111.936 80.216C111.936 78.8078 110.794 77.6663 109.386 77.6663Z" fill="currentColor"/>
</g>
</svg>
