<svg width="128" height="128" viewBox="0 0 128 128" fill="none" xmlns="http://www.w3.org/2000/svg">
<path d="M36.4114 97.5302C35.7535 96.3203 34.9227 95.1946 33.9209 94.193C32.8703 93.144 31.6797 92.2881 30.4031 91.6129C28.8776 90.8057 30.0835 89.0767 30.0835 89.0767C31.6448 86.7019 33.0685 84.3159 34.2456 82.2373L26.3432 74.3435H18.6715C17.196 74.3435 16 73.1468 16 71.6714C16 70.1967 17.196 69 18.6715 69H27.4479C28.1582 69 28.8371 69.2813 29.338 69.7818L58.217 98.6231C58.7186 99.1246 59 99.8049 59 100.513V109.33C59 110.806 57.8036 112 56.3279 112C54.8508 112 53.6544 110.806 53.6544 109.33V101.62L45.7834 93.7618C43.6589 95.0153 41.1894 96.5522 38.7425 98.2423C38.7422 98.2416 37.3405 99.2392 36.4114 97.5302Z" fill="currentColor"/>
<path d="M24 95C21.5952 95 19.3352 95.9365 17.6336 97.6375C15.9351 99.3368 15 101.597 15 104C15 106.405 15.9354 108.663 17.6336 110.362C19.3349 112.062 21.5952 112.999 24 113C26.4035 113 28.6638 112.061 30.3637 110.362C32.0636 108.663 33 106.404 33 104C33 101.597 32.0632 99.3364 30.3637 97.6375C28.6641 95.9365 26.4035 95 24 95Z" fill="currentColor"/>
<path d="M49.1552 76.5782C47.9736 77.76 46.0403 77.76 44.8587 76.5785L41.8862 73.606C40.7046 72.4245 40.7046 70.4909 41.8862 69.3094L92.6286 18.568C93.8102 17.3866 96.1379 16.296 97.801 16.1447L110.238 15.0125C111.902 14.8612 113.139 16.0994 112.987 17.7645L111.859 30.1907C111.707 31.8558 110.617 34.1846 109.435 35.3664L58.6899 86.1139C57.5083 87.2954 55.575 87.2954 54.3934 86.1139L51.4168 83.1373C50.2352 81.9559 50.2352 80.0222 51.4168 78.8404L93.9026 36.3503C94.5282 35.7261 94.5288 34.7115 93.9036 34.0867C93.2801 33.4608 92.2662 33.4608 91.64 34.086L49.1552 76.5782Z" fill="currentColor"/>
</svg>
