<svg width="512" height="512" viewBox="0 0 512 512" fill="none" xmlns="http://www.w3.org/2000/svg">
<path d="M32 0H224V32H32V0ZM288 0H480V32H288V0ZM476 160H448V32H320V160H192V32H64V160H36C16.2 160 0 176.2 0 196V476C0 495.8 16.2 512 36 512H188C207.8 512 224 495.8 224 476V288H288V476C288 495.8 304.2 512 324 512H476C495.8 512 512 495.8 512 476V196C512 176.2 495.8 160 476 160ZM174 480H50C40.1 480 32 472.8 32 464C32 455.2 40.1 448 50 448H174C183.9 448 192 455.2 192 464C192 472.8 183.9 480 174 480ZM272 256H240C231.2 256 224 248.8 224 240C224 231.2 231.2 224 240 224H272C280.8 224 288 231.2 288 240C288 248.8 280.8 256 272 256ZM462 480H338C328.1 480 320 472.8 320 464C320 455.2 328.1 448 338 448H462C471.9 448 480 455.2 480 464C480 472.8 471.9 480 462 480Z" fill="currentColor"/>
</svg>
