<svg fill="none" xmlns="http://www.w3.org/2000/svg" viewBox="0 0 24 24"><path fill-rule="evenodd" clip-rule="evenodd" d="M22.841 7.757l-.754-2.008.524-1.153a.39.39 0 00-.082-.439l-1.425-1.414a2.335 2.335 0 00-2.392-.545l-.398.135L16.232 0H8.576L6.52 2.361l-.387-.133a2.34 2.34 0 00-2.415.55L2.268 4.22a.309.309 0 00-.065.35l.547 1.197L2 7.771l.486 1.81 2.212 8.248a4.2 4.2 0 001.658 2.354s2.686 1.857 5.336 3.544c.233.149.477.257.739.253.261.004.505-.104.738-.254 2.976-1.913 5.332-3.55 5.332-3.55a4.203 4.203 0 001.655-2.357l2.202-8.251.483-1.812z" fill="url(#paint0_linear)"/><path fill-rule="evenodd" clip-rule="evenodd" d="M20.487 8.155l-.034.108-.055.192c-.147.18-.456.523-.687.764l-2.127 2.217c-.23.24-.361.543-.23.848l.287.693c.132.304.145.807.019 1.146-.129.344-.35.648-.64.88l-.222.177c-.261.209-.725.264-1.03.122l-.98-.456a5.079 5.079 0 01-1.01-.66l-.928-.817a.415.415 0 01-.022-.605l2.257-1.493c.28-.185.427-.527.268-.819l-.802-1.431c-.159-.292-.223-.68-.141-.862.081-.183.406-.428.722-.545l2.62-.954c.316-.117.299-.238-.037-.27L16.04 6.27c-.337-.031-.584.017-.909.106l-1.267.307c-.325.089-.394.428-.333.753l.523 2.779c.06.325.09.653.066.728-.024.075-.314.196-.643.27l-.434.096c-.329.073-.869.076-1.199.008l-.524-.11c-.33-.069-.621-.187-.646-.262-.024-.075.005-.403.066-.728l.52-2.78c.06-.325-.008-.663-.334-.752L9.66 6.378c-.326-.089-.572-.136-.909-.105l-1.674.124c-.336.031-.353.152-.037.269l2.622.951c.315.117.64.362.722.544.082.182.018.57-.14.862l-.8 1.432c-.16.292-.011.634.27.819l2.258 1.49a.415.415 0 01-.022.606l-.926.817c-.25.222-.705.52-1.01.662l-.98.457c-.304.142-.768.088-1.03-.12l-.222-.178a2.07 2.07 0 01-.65-.906c-.117-.311-.105-.814.026-1.12l.287-.692c.131-.305 0-.607-.232-.848L5.084 9.228c-.231-.24-.54-.584-.687-.763l-.056-.193-.034-.107c-.003-.124.042-.518.093-.625.051-.106.248-.418.437-.692l.456-.66c.19-.274.516-.71.727-.97l.667-.82c.21-.258.39-.468.417-.467.002-.001.274.048.606.11l1.011.191.814.152c.115.022.473-.044.794-.147l.727-.23c.322-.103.81-.237 1.084-.3l.254.004.255-.004c.274.062.762.196 1.083.298l.728.23c.322.102.68.167.795.146l.67-.127.143-.027 1.011-.19c.332-.064.604-.114.624-.112a6.77 6.77 0 01.399.467l.669.82c.21.258.538.693.728.967l.456.66c.19.273.486.772.504.885.019.113.031.307.028.431zm-7.955 6.614c.03 0 .31.103.622.23l.29.118c.311.126.813.352 1.114.502l.855.425c.3.15.323.43.048.622l-.729.51c-.275.193-.707.527-.96.744l-.919.785a.72.72 0 01-.908.003c-.248-.214-.658-.565-.912-.78a14.908 14.908 0 00-.962-.736l-.726-.502c-.276-.191-.257-.473.043-.626l.859-.438c.3-.153.8-.382 1.112-.508l.29-.118c.311-.127.59-.231.62-.231h.263z" fill="url(#paint1_linear)"/><defs><linearGradient id="paint0_linear" x1="2" y1="24.151" x2="22.841" y2="24.151" gradientUnits="userSpaceOnUse"><stop stop-color="#F50"/><stop offset=".41" stop-color="#F50"/><stop offset=".494" stop-color="#FF4530"/><stop offset=".572" stop-color="#FF2000"/><stop offset="1" stop-color="#FF2000"/></linearGradient><linearGradient id="paint1_linear" x1="12.397" y1="22.413" x2="19.965" y2="22.413" gradientUnits="userSpaceOnUse"><stop stop-color="#fff"/><stop offset="1" stop-color="#F4F4F4"/></linearGradient></defs></svg>